<?xml version="1.0" encoding="UTF-8"?>
<svg xmlns="http://www.w3.org/2000/svg" xmlns:xlink="http://www.w3.org/1999/xlink">
 <g>
  <path d="m154 134.4c-4.3242 0-8.4609 0.80078-12.25 2.2734l196.88 166.95c7.1016 6.0117 16.02 6.0078 23.102 0l196.52-166.95c-3.7891-1.4727-7.9258-2.2734-12.25-2.2734zm-33.25 28.699c-0.23047 1.5859-0.34766 3.25-0.34766 4.8984v224c0 4.7109 0.89062 9.2383 2.625 13.301l136.68-124.6zm458.5 0-138.6 117.43 136.32 124.77c1.7344-4.0625 2.625-8.5898 2.625-13.301v-224c0-1.6523-0.125-3.3125-0.34766-4.8984zm-164.32 139.3-31.5 26.773c-19.102 16.207-47.402 16.176-66.5 0l-31.324-26.602-134.75 122.85c1.0234 0.089844 2.1016 0.17188 3.1484 0.17188h392c1.1055 0 2.2461-0.074218 3.3242-0.17188z"/>
 </g>
</svg>
