<?xml version="1.0" encoding="UTF-8" standalone="no"?>
<svg
   height="500"
   sodipodi:docname="mail_icon_white.svg"
   inkscape:version="1.1.1 (c3084ef, 2021-09-22)"
   xmlns:inkscape="http://www.inkscape.org/namespaces/inkscape"
   xmlns:sodipodi="http://sodipodi.sourceforge.net/DTD/sodipodi-0.dtd"
   xmlns="http://www.w3.org/2000/svg"
   xmlns:svg="http://www.w3.org/2000/svg">
  <defs
     id="defs66" />
  <sodipodi:namedview
     id="namedview64"
     pagecolor="#ffffff"
     bordercolor="#ffffff"
     borderopacity="1"
     inkscape:pageshadow="0"
     inkscape:pageopacity="0"
     inkscape:pagecheckerboard="0"
     inkscape:document-units="pt"
     showgrid="false"
     inkscape:zoom="0.57428571"
     inkscape:cx="465.79602"
     inkscape:cy="466.66667"
     inkscape:window-width="1312"
     inkscape:window-height="762"
     inkscape:window-x="0"
     inkscape:window-y="25"
     inkscape:window-maximized="0"
     inkscape:current-layer="svg62" />
  <g
     id="g60">
    <path
      style="fill:#ffffff"
      d="m154 134.4c-4.3242 0-8.4609 0.80078-12.25 2.2734l196.88 166.95c7.1016 6.0117 16.02 6.0078 23.102 0l196.52-166.95c-3.7891-1.4727-7.9258-2.2734-12.25-2.2734zm-33.25 28.699c-0.23047 1.5859-0.34766 3.25-0.34766 4.8984v224c0 4.7109 0.89062 9.2383 2.625 13.301l136.68-124.6zm458.5 0-138.6 117.43 136.32 124.77c1.7344-4.0625 2.625-8.5898 2.625-13.301v-224c0-1.6523-0.125-3.3125-0.34766-4.8984zm-164.32 139.3-31.5 26.773c-19.102 16.207-47.402 16.176-66.5 0l-31.324-26.602-134.75 122.85c1.0234 0.089844 2.1016 0.17188 3.1484 0.17188h392c1.1055 0 2.2461-0.074218 3.3242-0.17188z"
      id="path58" />
  </g>
  <path
     style="fill:#ffffff;stroke:none;stroke-width:1.74129"
     d="m 455.72177,406.14756 c -2.6677,-1.67097 -63.09905,-52.40378 -134.2919,-112.7396 -83.03774,-70.37436 -128.86603,-110.32573 -127.8362,-111.44279 2.22009,-2.40811 543.917,-2.40811 546.16924,0 1.05188,1.12468 -39.05055,36.27209 -113.24632,99.25374 -166.23361,141.10868 -149.97207,127.98665 -158.59485,127.97591 -4.04227,-0.005 -9.53226,-1.37632 -12.19997,-3.04726 z"
     id="path185"
     transform="scale(0.75)" />
  <path
     style="fill:#ffffff;stroke:none;stroke-width:1.74129"
     d="m 463.59675,407.49974 c -3.12503,-0.74127 -9.25482,-4.13143 -13.62177,-7.53369 C 428.84055,383.50036 239.42548,222.62544 210.8712,196.88926 l -14.62631,-13.18279 12.88502,-1.07838 c 16.81848,-1.40758 498.21807,-1.40758 515.19459,0 l 13.00608,1.07838 -15.61803,13.95774 c -38.51492,34.42058 -222.46358,190.71468 -239.77805,203.73021 -5.71397,4.29525 -10.89907,7.72936 -11.52245,7.63132 -0.6234,-0.098 -3.69027,-0.78473 -6.8153,-1.526 z"
     id="path261"
     transform="scale(0.75)" />
  <path
     style="fill:#ffffff;stroke-width:1.74129"
     d="m 163.0143,535.3498 c -0.5907,-1.53936 -1.074,-73.25781 -1.074,-159.37437 V 219.39987 l 90.54726,76.70336 c 49.801,42.18684 90.54727,77.39352 90.54727,78.23706 0,1.24613 -166.47847,153.97959 -176.12904,161.58723 -2.33346,1.8395 -3.002,1.74025 -3.89149,-0.57772 z"
     id="path411"
     transform="scale(0.75)" />
  <path
     style="fill:#ffffff;stroke-width:1.74129"
     d="m 211.59277,559.17792 c 15.89617,-15.4447 168.26139,-153.45447 169.39097,-153.43139 0.6766,0.0138 11.41676,8.73602 23.86701,19.38266 24.08317,20.59436 34.45478,26.61607 51.20925,29.73189 13.96273,2.59665 30.92237,-0.42713 44.19584,-7.87977 5.44974,-3.05987 19.57224,-13.88783 31.38329,-24.06213 l 21.47468,-18.49872 70.39583,64.39264 c 38.71772,35.41596 78.23165,71.71504 87.80877,80.66463 l 17.41293,16.27198 -262.03906,0.0853 -262.03908,0.0853 z"
     id="path450"
     transform="scale(0.75)" />
  <path
     style="fill:#ffffff;stroke-width:1.74129"
     d="m 679.81389,457.14574 c -48.7546,-44.60673 -88.8682,-81.75627 -89.14133,-82.55452 -0.46328,-1.35401 177.73356,-153.44694 179.78324,-153.44694 1.55191,0 0.99961,312.37977 -0.55662,314.83339 -1.0329,1.62851 -26.52567,-20.67974 -90.08529,-78.83193 z"
     id="path489"
     transform="scale(0.75)" />
  <path
     style="fill:#ffffff;stroke-width:1.74129"
     d="M 453.94168,400.93284 C 441.57541,392.51591 296.91581,270.49967 224.74583,207.6127 c -21.21522,-18.48638 -24.60582,-22.10263 -21.76617,-23.21476 4.29208,-1.68097 522.92898,-1.74339 527.19314,-0.0635 2.75214,1.08425 2.04538,2.30953 -5.22388,9.05648 -21.44526,19.90435 -216.80563,186.04445 -241.10239,205.04041 -6.93942,5.42545 -13.30016,9.03131 -15.93129,9.03131 -2.4089,0 -8.69701,-2.93844 -13.97356,-6.52985 z"
     id="path528"
     transform="scale(0.75)" />
  <path
     style="fill:#ffffff;stroke-width:1.74129"
     d="M 454.81603,401.5959 C 444.0377,394.34261 408.86371,364.97 300.37313,272.62581 212.60148,197.917 199.28434,185.84784 203.01038,184.38716 c 4.30573,-1.68793 522.93246,-1.71827 527.22466,-0.0308 2.74259,1.07821 0.99017,3.3063 -11.31841,14.39062 -32.74388,29.48709 -215.09802,184.36297 -236.01073,200.44716 -6.16531,4.74181 -12.58938,8.26859 -15.06134,8.26859 -2.37078,0 -8.23361,-2.64005 -13.02853,-5.86679 z"
     id="path567"
     transform="scale(0.75)" />
</svg>
